<svg viewBox="0 0 26 48" xmlns="http://www.w3.org/2000/svg">
  <path d="M22.5858 47.4142C23.3668 48.1953 24.6332 48.1953 25.4142 47.4142C26.1953 46.6332 26.1953 45.3668 25.4142 44.5858L22.5858 47.4142ZM2 24L0.585786 22.5858C-0.195262 23.3668 -0.195262 24.6332 0.585786 25.4142L2 24ZM25.4142 3.41421C26.1953 2.63317 26.1953 1.36683 25.4142 0.585786C24.6332 -0.195262 23.3668 -0.195262 22.5858 0.585786L25.4142 3.41421ZM25.4142 44.5858L3.41421 22.5858L0.585786 25.4142L22.5858 47.4142L25.4142 44.5858ZM3.41421 25.4142L25.4142 3.41421L22.5858 0.585786L0.585786 22.5858L3.41421 25.4142Z"/>
</svg>
