<svg viewBox="0 0 26 48" xmlns="http://www.w3.org/2000/svg">
  <path d="M3.41422 0.585783C2.63317 -0.195265 1.36684 -0.195265 0.585791 0.585783C-0.195259 1.36683 -0.195259 2.63316 0.585791 3.41421L3.41422 0.585783ZM24 24L25.4142 25.4142C26.1953 24.6332 26.1953 23.3668 25.4142 22.5858L24 24ZM0.585787 44.5858C-0.195263 45.3668 -0.195263 46.6332 0.585787 47.4142C1.36683 48.1953 2.63317 48.1953 3.41421 47.4142L0.585787 44.5858ZM0.585791 3.41421L22.5858 25.4142L25.4142 22.5858L3.41422 0.585783L0.585791 3.41421ZM22.5858 22.5858L0.585787 44.5858L3.41421 47.4142L25.4142 25.4142L22.5858 22.5858Z"/>
</svg>
