<svg width="24" height="24" viewBox="0 0 24 24" xmlns="http://www.w3.org/2000/svg">
  <path d="M20.1669 14.9896C19.3102 14.1336 18.2285 14.1336 17.3609 14.9896C16.7075 15.6424 16.042 16.2965 15.3994 16.9602C15.23 17.1403 15.0728 17.1863 14.8586 17.0617C14.4302 16.8247 13.9802 16.646 13.5749 16.3873C11.6582 15.1941 10.0586 13.6515 8.65022 11.9179C7.95076 11.0619 7.32043 10.1383 6.89208 9.10352C6.80126 8.88953 6.82431 8.7541 6.99375 8.58615C7.65932 7.95502 8.30049 7.30222 8.94301 6.64942C9.84445 5.73793 9.84445 4.67882 8.94301 3.76734C8.43604 3.24997 7.91823 2.74344 7.39906 2.22472C6.86904 1.69516 6.35123 1.16696 5.81037 0.637405C4.94282 -0.206363 3.8611 -0.218552 2.99356 0.637405C2.32934 1.29021 1.69766 1.9552 1.02125 2.59717C0.401766 3.19309 0.0859263 3.91496 0.0181494 4.75873C-0.083516 6.13205 0.254013 7.42682 0.728452 8.69992C1.70851 11.3233 3.18469 13.642 4.97671 15.771C7.40041 18.6531 10.2958 20.9393 13.6874 22.5835C15.2083 23.3257 16.7984 23.9013 18.5104 23.9907C19.6829 24.0584 20.7186 23.7658 21.5414 22.8422C22.1053 22.211 22.7356 21.649 23.3334 21.0409C24.224 20.151 24.224 19.0703 23.3226 18.1466C22.2734 17.0834 21.2255 16.0365 20.1669 14.9896Z"/>
</svg>
