<svg xmlns="http://www.w3.org/2000/svg" viewBox="0 0 225.32 91.66">
  <defs>
    <style>
    .cls-1{font-size:12px;font-family:Raleway-Medium, Raleway;letter-spacing:0.05em;}.cls-1,.cls-4{fill:#30688c;}.cls-2{letter-spacing:0.02em;}.cls-3{letter-spacing:0.05em;}.cls-4{font-size:37.46px;font-family:Raleway-SemiBold, Raleway;font-weight:700;letter-spacing:-0.02em;}.cls-5{letter-spacing:-0.03em;}.cls-6{letter-spacing:-0.03em;}.cls-7{fill:#57bcea;}
    </style>
  </defs>
  <g id="Слой_2" data-name="Слой 2">
    <g id="OBJECTS">
      <text class="cls-1" transform="translate(37.47 88.9)">клининговая <tspan class="cls-2" x="85.99" y="0">к</tspan><tspan class="cls-3" x="92.69" y="0">омпания</tspan></text>
      <text class="cls-4" transform="translate(0 76.13) scale(0.95 1)">Чис<tspan class="cls-5" x="65.6" y="0">т</tspan><tspan class="cls-6" x="82.98" y="0">ая Пенза</tspan></text>
      <path class="cls-7" d="M205.61,39.51c-2.08-10.54-13.21-17-23.76-14.71a19.7,19.7,0,0,0-4,1.33c-5.38-6.17-9.3-8.41-15.93-8.41a19.34,19.34,0,0,0-3,.26,28.64,28.64,0,0,0-43.75-6.1A27.94,27.94,0,0,0,69,18.14a12.9,12.9,0,0,0-6.89-2.25,13.86,13.86,0,0,0-14.9,12.65c-8.06-2.18-16.74,1-20.6,8.65-2.24,4.42-2.81,10.26-.34,14.58a20.42,20.42,0,0,1,.34-5.16c1.62-11.32,10.25-17.4,20.69-16.18A19,19,0,0,1,56.34,34a18,18,0,0,0-5-3.75,16.09,16.09,0,0,0-2.9-1.15c2.39-6.54,6.86-9.64,13.06-9.93a14.92,14.92,0,0,1,6.68,1.23,28.14,28.14,0,0,0-2,10.41c0,.18,0,.35,0,.52C69.38,18.42,79.31,8,94.13,8s24.88,9.14,28.2,23.33c0-.18,0-.35,0-.52a28.65,28.65,0,0,0-5.21-16.44A26.77,26.77,0,0,1,155.6,18.8a19.42,19.42,0,0,0-6.69,4,20.65,20.65,0,0,1,26,3.89c.07.08.34.27.43.33a18.79,18.79,0,0,0-8.29,12A19.6,19.6,0,0,1,181,28.33c10.57-2.33,20,3.3,22.32,13.81a27.23,27.23,0,0,1,.64,9.31C205.68,48.57,206.67,44.85,205.61,39.51Z"/><path class="cls-7" d="M85.43,25.29c-.8-.9-1.25-2.35-2.23-6.74-1,4.37-1.41,5.82-2.2,6.72s-1.13,1.4-5,2.51c3.89,1.11,4.22,1.61,5,2.51s1.24,2.35,2.2,6.72c1-4.39,1.43-5.84,2.23-6.73s1.12-1.41,5-2.49C86.55,26.7,86.23,26.19,85.43,25.29Z"/><path class="cls-7" d="M102.07,19.9c-.5-.56-.78-1.46-1.39-4.2-.6,2.73-.88,3.63-1.38,4.19s-.71.88-3.13,1.57c2.43.69,2.64,1,3.13,1.57s.77,1.46,1.38,4.19c.61-2.74.89-3.64,1.39-4.2s.7-.88,3.12-1.55C102.77,20.77,102.57,20.46,102.07,19.9Z"/><path class="cls-7" d="M144,29.4c-.48-.54-.75-1.41-1.34-4-.58,2.62-.84,3.49-1.32,4s-.68.84-3,1.51c2.33.66,2.53,1,3,1.51s.74,1.41,1.32,4c.59-2.63.86-3.5,1.34-4s.67-.84,3-1.49C144.68,30.24,144.48,29.94,144,29.4Z"/><path class="cls-7" d="M179.41,17.53c.35.39.54,1,1,2.93.43-1.92.63-2.55,1-2.94s.49-.61,2.18-1.09c-1.69-.47-1.84-.7-2.18-1.09s-.55-1-1-2.94c-.42,1.91-.61,2.54-1,2.93s-.49.61-2.19,1.1C178.91,16.91,179.06,17.13,179.41,17.53Z"/>
      <path class="cls-7" d="M66.16,9.85c.35.39.54,1,1,2.93.43-1.92.63-2.55,1-2.94s.49-.61,2.18-1.09c-1.69-.47-1.84-.7-2.18-1.09s-.55-1-1-2.94c-.42,1.91-.61,2.54-1,2.93s-.49.61-2.19,1.1C65.66,9.24,65.81,9.46,66.16,9.85Z"/>
      <path class="cls-7" d="M162.42,9.74c.66.75,1,1.95,1.83,5.57.81-3.64,1.19-4.85,1.85-5.59s.93-1.17,4.15-2.07c-3.22-.9-3.49-1.32-4.15-2.07s-1-1.95-1.85-5.59c-.8,3.63-1.17,4.83-1.83,5.57s-.94,1.17-4.17,2.08C161.48,8.57,161.76,9,162.42,9.74Z"/>
    </g>
  </g>
</svg>