<?xml version="1.0" standalone="no"?>
<!DOCTYPE svg PUBLIC "-//W3C//DTD SVG 20010904//EN"
 "http://www.w3.org/TR/2001/REC-SVG-20010904/DTD/svg10.dtd">
<svg version="1.0" xmlns="http://www.w3.org/2000/svg"
 width="226.000000pt" height="226.000000pt" viewBox="0 0 226.000000 226.000000"
 preserveAspectRatio="xMidYMid meet">
<metadata>
Created by potrace 1.11, written by Peter Selinger 2001-2013
</metadata>
<g transform="translate(0.000000,226.000000) scale(0.100000,-0.100000)"
fill="#000000" stroke="none">
<path d="M1637 1563 c-4 -20 -14 -34 -28 -38 l-23 -8 27 -19 c15 -11 27 -29
27 -41 1 -18 3 -17 14 9 8 17 22 34 32 38 18 7 18 8 1 17 -9 6 -23 25 -30 42
l-13 32 -7 -32z"/>
<path d="M868 1556 c-58 -16 -115 -55 -148 -101 -25 -35 -36 -39 -80 -26 -57
17 -130 -24 -157 -87 -12 -29 -17 -33 -51 -31 -101 6 -182 -71 -182 -173 0
-62 16 -80 22 -26 15 129 123 201 242 161 50 -17 57 -10 11 11 -38 18 -38 29
4 73 23 24 84 44 116 38 11 -2 24 -4 28 -4 5 -1 6 -16 2 -33 -4 -18 -9 -44
-12 -58 -2 -14 9 3 26 36 34 68 93 127 150 151 20 9 68 16 106 17 122 2 210
-56 265 -175 l20 -44 -6 40 c-3 22 -14 59 -24 82 l-19 42 33 21 c48 29 127 42
184 29 56 -12 128 -52 142 -79 9 -16 6 -22 -17 -35 -26 -15 -26 -15 -3 -8 14
4 52 8 85 7 47 0 69 -6 103 -27 23 -15 42 -29 42 -31 0 -2 -13 -18 -29 -35
-16 -17 -34 -46 -40 -64 l-12 -32 33 39 c38 46 98 76 153 76 45 0 111 -28 137
-56 26 -30 48 -89 50 -136 l1 -43 13 29 c28 69 -5 160 -74 206 -55 36 -101 46
-158 33 -40 -9 -45 -8 -66 14 -33 35 -71 53 -120 56 -35 2 -49 9 -77 40 -93
103 -263 124 -373 46 -25 -18 -58 -17 -58 1 0 5 -25 21 -54 35 -65 32 -143 40
-208 21z"/>
<path d="M663 1521 c-6 -11 -5 -24 4 -41 7 -14 13 -20 13 -13 0 6 6 18 13 25
10 11 10 16 -4 29 -15 15 -17 15 -26 0z"/>
<path d="M1793 1441 c-8 -12 -7 -22 1 -33 12 -16 13 -16 27 0 12 15 12 19 -2
33 -15 15 -17 15 -26 0z"/>
<path d="M1003 1413 c-4 -10 -13 -23 -21 -29 -13 -9 -13 -12 2 -17 9 -4 16
-13 16 -22 0 -22 18 -19 25 5 3 11 11 20 18 20 6 0 1 9 -11 21 -12 11 -20 24
-17 30 4 5 4 9 0 9 -3 0 -9 -8 -12 -17z"/>
<path d="M825 1371 c-4 -20 -16 -36 -31 -43 -13 -6 -24 -15 -24 -20 0 -5 4 -7
9 -3 13 7 51 -43 52 -69 0 -15 4 -11 13 14 7 19 25 42 40 51 l27 17 -24 6
c-16 4 -30 18 -40 43 l-14 37 -8 -33z"/>
<path d="M1414 1303 l-20 -28 23 -22 c13 -12 23 -17 23 -11 0 6 7 20 17 30 10
11 12 18 4 18 -6 0 -15 9 -19 20 -7 20 -9 19 -28 -7z"/>
<path d="M21 1053 c-3 -102 24 -134 107 -126 l43 3 -2 -37 c-3 -57 -1 -63 21
-63 19 0 20 7 20 130 0 109 -3 132 -15 137 -23 8 -27 0 -29 -61 -1 -30 -4 -58
-8 -61 -3 -3 -19 -7 -37 -10 -41 -5 -61 24 -61 87 0 40 -3 48 -18 48 -15 0
-19 -9 -21 -47z"/>
<path d="M1279 1093 c-1 -11 -1 -235 0 -250 1 -7 10 -13 21 -13 19 0 20 7 20
115 l0 116 58 -3 57 -3 0 -113 c0 -110 0 -112 23 -112 23 0 23 0 20 133 l-3
132 -97 3 c-54 1 -98 -1 -99 -5z"/>
<path d="M255 1022 c-3 -3 -5 -47 -5 -99 0 -86 1 -93 20 -93 13 0 34 22 65 67
l45 68 0 -68 c0 -60 2 -67 20 -67 23 0 22 -3 22 105 0 99 1 92 -18 92 -9 0
-31 -20 -48 -45 -17 -25 -39 -54 -48 -66 -16 -20 -16 -20 -16 24 1 75 -1 87
-17 87 -8 0 -17 -3 -20 -5z"/>
<path d="M494 1015 c-76 -53 -42 -183 49 -187 34 -1 87 23 87 41 0 15 -39 19
-51 5 -23 -28 -79 0 -84 42 -6 56 42 98 77 67 11 -10 25 -12 39 -8 l23 8 -28
23 c-31 27 -81 31 -112 9z"/>
<path d="M639 1014 c-12 -15 -1 -24 32 -24 26 0 27 -1 27 -67 0 -94 0 -93 22
-93 18 0 20 7 20 80 l0 80 31 0 c24 0 30 4 27 18 -3 14 -15 17 -76 17 -42 0
-77 -4 -83 -11z"/>
<path d="M832 1018 c-26 -13 -24 -35 4 -29 56 10 93 -1 94 -30 0 -4 -23 -9
-52 -11 -34 -4 -56 -12 -65 -24 -42 -57 24 -119 92 -86 20 10 30 11 33 3 2 -6
13 -11 24 -11 17 0 19 4 13 30 -4 17 -8 54 -9 82 -1 39 -7 55 -25 69 -26 21
-73 24 -109 7z m95 -115 c7 -19 -29 -44 -56 -41 -36 4 -42 44 -9 57 25 9 60 1
65 -16z"/>
<path d="M1020 1005 c-24 -25 -21 -73 5 -88 14 -7 13 -12 -5 -41 -25 -41 -25
-46 -1 -46 11 0 28 15 40 35 11 19 27 35 36 35 11 0 15 -10 15 -35 0 -28 4
-35 20 -35 19 0 20 7 20 101 l0 100 -55 -2 c-42 -2 -60 -8 -75 -24z m88 -43
c3 -28 0 -32 -22 -32 -24 0 -40 14 -41 35 -2 19 15 32 37 30 18 -1 24 -8 26
-33z"/>
<path d="M1553 1012 c-48 -38 -53 -119 -10 -160 37 -35 116 -31 137 8 12 23
-13 35 -30 14 -15 -17 -64 -19 -77 -1 -29 37 -23 43 51 42 39 -1 74 0 78 2 13
6 -12 69 -37 91 -31 27 -81 29 -112 4z m85 -28 c38 -26 28 -42 -28 -41 -28 0
-53 3 -55 7 -6 10 33 50 48 50 7 0 23 -7 35 -16z"/>
<path d="M1720 928 c0 -97 0 -99 23 -96 19 3 22 8 20 41 l-3 37 44 0 43 0 -1
-37 c-1 -32 3 -39 21 -41 22 -3 23 -2 20 94 -2 84 -4 97 -19 100 -12 1 -18 -5
-19 -19 -1 -12 -2 -29 -3 -37 -1 -10 -14 -16 -43 -18 -40 -3 -41 -3 -39 28 2
30 -6 42 -31 46 -10 2 -13 -23 -13 -98z"/>
<path d="M1936 1014 c-9 -8 -16 -19 -16 -24 0 -11 28 -21 32 -10 2 4 14 10 28
12 21 2 25 -1 25 -22 0 -16 -6 -25 -15 -25 -18 0 -20 -29 -2 -31 6 -1 17 -2
22 -3 6 0 10 -10 10 -21 0 -24 -44 -38 -65 -20 -8 7 -22 9 -32 6 -29 -12 17
-48 61 -48 62 0 101 59 61 92 -11 9 -13 16 -5 24 16 16 12 51 -8 69 -23 21
-76 22 -96 1z"/>
<path d="M2112 1018 c-26 -13 -24 -34 4 -30 47 7 76 4 85 -9 15 -23 11 -26
-43 -31 -34 -4 -56 -12 -65 -24 -42 -57 24 -119 92 -86 20 10 30 11 33 3 2 -6
13 -11 24 -11 17 0 19 4 13 30 -4 17 -8 54 -9 82 -1 39 -7 55 -25 69 -26 21
-73 24 -109 7z m95 -115 c7 -19 -29 -44 -56 -41 -36 4 -42 44 -9 57 25 9 60 1
65 -16z"/>
<path d="M390 770 c-6 -16 -5 -51 2 -62 5 -9 8 -7 8 7 1 18 1 19 11 3 5 -10
15 -18 21 -18 7 0 6 5 -2 15 -6 8 -9 24 -5 37 6 22 5 22 -9 5 -14 -18 -14 -18
-19 0 -3 10 -6 16 -7 13z"/>
<path d="M470 761 c0 -6 1 -12 2 -13 1 -2 -4 -13 -11 -25 -8 -15 -8 -23 -1
-23 6 0 13 14 17 30 7 40 23 38 23 -2 0 -21 3 -28 8 -20 16 24 7 57 -16 60
-12 2 -22 -1 -22 -7z"/>
<path d="M620 770 c-7 -20 -7 -61 1 -65 5 -4 9 1 9 9 0 9 7 16 16 16 8 0 13
-4 9 -9 -3 -5 -1 -12 5 -16 6 -4 10 8 10 30 0 22 -4 34 -10 30 -6 -4 -8 -11
-5 -16 4 -5 -1 -9 -9 -9 -8 0 -17 8 -19 18 -3 9 -6 15 -7 12z"/>
<path d="M690 738 c0 -39 8 -46 28 -26 18 18 14 32 -5 17 -11 -9 -14 -10 -9
-2 4 7 2 21 -3 30 -8 15 -10 11 -11 -19z"/>
<path d="M736 762 c-3 -5 -1 -22 4 -38 8 -29 8 -29 9 9 1 36 -3 45 -13 29z"/>
<path d="M772 733 c0 -35 1 -36 14 -18 14 19 14 19 29 -1 13 -18 14 -16 15 20
0 37 -1 39 -15 20 -14 -18 -16 -18 -29 -1 -13 16 -14 15 -14 -20z"/>
<path d="M863 763 c-15 -6 -18 -63 -3 -63 6 0 9 3 9 8 -4 24 3 42 17 42 8 0
12 5 9 10 -7 11 -13 11 -32 3z"/>
<path d="M916 748 c-19 -26 -4 -51 28 -46 29 4 33 43 7 57 -16 9 -23 7 -35
-11z m39 -18 c0 -22 -29 -18 -33 3 -3 14 1 18 15 15 10 -2 18 -10 18 -18z"/>
<path d="M990 735 c0 -30 3 -35 23 -35 31 0 34 4 29 40 -3 24 -9 30 -28 30
-21 0 -24 -5 -24 -35z m40 15 c0 -5 -4 -10 -9 -10 -6 0 -13 5 -16 10 -3 6 1
10 9 10 9 0 16 -4 16 -10z m0 -30 c0 -5 -7 -10 -15 -10 -8 0 -15 5 -15 10 0 6
7 10 15 10 8 0 15 -4 15 -10z"/>
<path d="M1060 761 c0 -5 9 -7 20 -4 11 3 20 0 20 -6 0 -6 -9 -11 -20 -11 -13
0 -20 -7 -20 -20 0 -15 7 -20 28 -20 24 0 28 4 26 23 -1 12 -3 28 -3 35 -1 14
-51 17 -51 3z m40 -41 c0 -5 -7 -10 -15 -10 -8 0 -15 5 -15 10 0 6 7 10 15 10
8 0 15 -4 15 -10z"/>
<path d="M1137 755 c-4 -8 -2 -17 3 -20 5 -3 7 -13 4 -23 -5 -14 -3 -14 10 2
15 18 16 18 16 2 0 -29 15 -9 18 23 2 27 -1 31 -22 31 -13 0 -26 -7 -29 -15z
m38 -5 c-3 -5 -10 -10 -16 -10 -5 0 -9 5 -9 10 0 6 7 10 16 10 8 0 12 -4 9
-10z"/>
<path d="M1250 770 c-6 -18 -4 -62 2 -66 4 -3 8 0 8 7 0 10 3 10 12 1 20 -20
32 -13 14 7 -11 12 -14 21 -7 26 6 3 11 11 11 17 0 7 -5 7 -14 -1 -11 -9 -15
-9 -19 1 -3 7 -6 11 -7 8z"/>
<path d="M1325 756 c-21 -15 -16 -50 8 -54 25 -5 46 15 40 38 -7 25 -27 32
-48 16z m35 -20 c0 -20 -19 -31 -32 -18 -6 6 -7 15 -4 21 10 16 36 13 36 -3z"/>
<path d="M1500 762 c-16 -7 -23 -62 -9 -62 5 0 9 11 9 25 0 16 6 25 15 25 10
0 15 -10 15 -27 0 -28 12 -25 16 4 3 17 -13 44 -25 42 -3 0 -13 -3 -21 -7z"/>
<path d="M1570 760 c0 -5 7 -7 15 -4 8 4 15 2 15 -4 0 -5 -9 -12 -20 -15 -33
-8 -25 -37 10 -37 31 0 38 17 24 54 -7 17 -44 22 -44 6z m35 -40 c-3 -5 -13
-10 -21 -10 -8 0 -14 5 -14 10 0 6 9 10 21 10 11 0 17 -4 14 -10z"/>
<path d="M1640 765 c-1 -5 -3 -17 -5 -26 -1 -9 1 -23 6 -30 7 -11 9 -10 9 4 0
9 7 17 15 17 8 0 15 -7 15 -16 0 -8 4 -13 9 -10 5 4 8 17 6 31 -3 30 -15 46
-15 22 0 -22 -27 -22 -33 1 -3 9 -6 13 -7 7z"/>
<path d="M1719 765 c-9 -17 -5 -58 8 -62 6 -2 14 5 18 16 8 27 25 27 18 1 -3
-11 -1 -20 4 -20 5 0 10 14 11 30 3 35 -11 39 -32 9 -14 -21 -14 -21 -18 7 -2
16 -6 25 -9 19z"/>
<path d="M1802 734 c1 -33 3 -35 15 -18 12 16 13 16 13 1 0 -9 4 -17 8 -17 5
0 9 16 9 35 0 30 -4 35 -23 35 -20 0 -23 -5 -22 -36z m28 16 c0 -5 -4 -10 -10
-10 -5 0 -10 5 -10 10 0 6 5 10 10 10 6 0 10 -4 10 -10z"/>
<path d="M534 733 c2 -16 4 -30 5 -32 0 -2 8 2 16 9 17 14 21 35 5 25 -5 -3
-10 1 -10 9 0 9 -4 16 -9 16 -6 0 -8 -12 -7 -27z"/>
<path d="M574 744 c3 -9 6 -23 6 -31 0 -26 13 -5 15 22 0 15 -5 25 -13 25 -9
0 -12 -6 -8 -16z"/>
<path d="M1390 730 c0 -16 5 -30 11 -30 5 0 7 5 3 12 -5 8 -2 9 11 4 11 -4 22
-2 27 6 5 9 8 8 8 -6 0 -28 13 -11 15 19 1 29 -19 34 -30 8 -6 -17 -7 -17 -16
0 -15 26 -29 20 -29 -13z"/>
</g>
</svg>
