<?xml version="1.0" standalone="no"?>
<!DOCTYPE svg PUBLIC "-//W3C//DTD SVG 20010904//EN"
 "http://www.w3.org/TR/2001/REC-SVG-20010904/DTD/svg10.dtd">
<svg version="1.0" xmlns="http://www.w3.org/2000/svg"
 width="540.000000pt" height="540.000000pt" viewBox="0 0 540.000000 540.000000"
 preserveAspectRatio="xMidYMid meet">
<metadata>
Created by potrace 1.14, written by Peter Selinger 2001-2017
</metadata>
<g transform="translate(0.000000,540.000000) scale(0.100000,-0.100000)"
fill="#000000" stroke="none">
<path d="M0 2700 l0 -2700 2700 0 2700 0 0 2700 0 2700 -2700 0 -2700 0 0
-2700z m4570 514 c144 -566 263 -1033 264 -1039 1 -11 -399 -116 -426 -112 -9
1 -274 254 -590 562 -315 308 -583 568 -594 577 -17 15 10 -99 153 -660 95
-372 172 -683 171 -691 -2 -9 -73 -32 -212 -68 -115 -30 -211 -52 -213 -49 -3
2 -125 476 -272 1053 -233 910 -266 1049 -252 1055 9 4 99 28 201 53 102 25
192 48 201 51 11 3 211 -186 615 -580 329 -322 599 -584 600 -583 1 1 -76 308
-172 682 -95 374 -174 685 -174 691 0 6 96 35 213 66 191 49 213 53 219 38 3
-10 124 -480 268 -1046z m-2765 351 c267 -69 474 -249 614 -532 81 -165 153
-429 171 -633 43 -500 -215 -891 -665 -1005 -491 -125 -911 107 -1114 616 -38
95 -106 358 -120 462 -45 330 38 630 230 831 144 152 321 238 574 279 55 10
249 -2 310 -18z"/>
<path d="M1443 3195 c-217 -61 -335 -251 -319 -515 11 -195 79 -459 162 -628
93 -191 209 -289 373 -315 154 -23 334 56 415 183 57 89 70 145 71 305 0 165
-15 253 -81 475 -53 175 -114 290 -200 377 -95 98 -157 126 -279 130 -57 2
-109 -3 -142 -12z"/>
</g>
</svg>
